<?xml version="1.0" encoding="UTF-8"?>
<!DOCTYPE svg PUBLIC "-//W3C//DTD SVG 1.1//EN" "http://www.w3.org/Graphics/SVG/1.1/DTD/svg11.dtd">
<!-- Creator: CorelDRAW 2026 -->
<svg xmlns="http://www.w3.org/2000/svg" xml:space="preserve" width="181.153mm" height="185.523mm" version="1.1" style="shape-rendering:geometricPrecision; text-rendering:geometricPrecision; image-rendering:optimizeQuality; fill-rule:evenodd; clip-rule:evenodd"
viewBox="0 0 4009.29 4106.01"
 xmlns:xlink="http://www.w3.org/1999/xlink"
 xmlns:xodm="http://www.corel.com/coreldraw/odm/2003">
 <defs>
  <style type="text/css">
   <![CDATA[
    .str0 {stroke:white;stroke-width:110.66;stroke-miterlimit:22.9256}
    .fil1 {fill:none}
    .fil2 {fill:#000066}
    .fil0 {fill:#ED2E38}
   ]]>
  </style>
 </defs>
 <g id="Слой_x0020_1">
  <metadata id="CorelCorpID_0Corel-Layer"/>
  <polygon class="fil0" points="2004.65,237.59 2473.68,1699.85 4009.29,1694.07 2763.56,2592.01 3243.59,4050.68 2004.65,3143.39 765.7,4050.68 1245.74,2592.01 -0,1694.07 1535.61,1699.85 "/>
  <path class="fil1 str0" d="M1949.54 942.76c55.16,-82.55 109.78,-176.81 156.9,-214.12 22.32,-17.67 88.66,-37.1 109.17,-8.59 31.4,43.67 62.84,142.38 101.53,231.68 47.64,109.94 102.99,212.92 142.92,269.87 86.48,123.34 284.96,467.86 248.1,625.23 -30.5,130.24 -160.45,151.23 -251.87,74.72 -19.72,-16.5 -32.64,-33.69 -52.24,-19.43 -24.04,17.49 -64.93,50.16 -94.69,49.87 -16.88,-0.16 -30.91,-2.34 -26.53,16.06 7.08,29.77 42.53,63.8 51.75,97.12 9.22,33.32 -3.55,83.65 26.22,96.41 70.64,30.27 101.64,3.56 195.94,69.13 31.34,21.79 69.62,53.04 104.73,95.14 85.68,102.75 176.39,225.41 208.58,327.38 19.85,62.88 -22.58,192.64 11.24,295.49l362.31 1101.94 -2477.89 0 246.44 -745.56c0.4,-204.4 41.23,-425.38 52.08,-627.69 1.25,-23.27 17.73,-27.37 17.68,-37.31l-4.72 -815.02 -83.2 -1.4c-18.66,-0.31 -14.33,-59.72 -24.33,-87.51 -2.35,-6.52 -14.65,-3.58 -18.15,-7.09 -18.43,-18.43 -12.82,-115.44 -11.39,-166.48 10.04,-358.1 26.26,-680.95 55.99,-1038.08 22.69,175.9 52.68,364.18 65.21,539.74 4.96,69.42 22.39,322.04 26.68,384.4 1.14,16.47 -2.55,13.96 12.2,14.06l95.08 0.64 -0 58.15 116.44 0.05 0 72.23 -116.44 0 -0.01 133.99 16.66 0.09 0 78.59 -16.65 0 0 332.15c0,25.49 8.33,54.75 38.04,59.77 15.36,2.59 37.96,3.56 52.65,12.15 17.61,10.29 34.18,37.57 40.41,76 16.72,103.12 -1.79,275.08 4.87,332.79 2.11,18.31 2.25,17.11 16.25,22.47 35.34,13.52 30.09,69.59 30.96,100.83 4.01,143.01 -19.31,382.95 8.14,325.65 45.29,-94.51 101.48,-221.27 170.93,-321.7 34.96,-50.55 201.85,-201.87 213.14,-226.18 20.74,-44.65 -74.4,-52.04 -22.53,-143.98 31.19,-55.29 39.69,-48.21 -4.26,-100.66 -43.95,-52.46 -66.63,-59.54 -66.63,-102.08 0,-42.53 12.76,-109.17 -49.62,-144.62 -62.38,-35.44 -85.78,-64.5 -153.82,-88.61 -51.91,-18.38 -121.19,-13.45 -136.82,-85.78 -2.29,-10.6 -3.74,-21.9 -3.69,-32.89 0.27,-61.65 42.9,-58.56 58.26,-87.62 8.06,-15.24 5.92,-34.29 7.18,-47.19 2.13,-21.72 17.57,-10.68 16.84,-42.79 -0.27,-11.74 -1.61,-26.57 -0.65,-34.79 1.42,-12.05 9.92,-14.88 11.34,-26.94 1.42,-12.06 -3.55,-24.81 -18.43,-55.29 -14.88,-30.48 1.42,-43.23 40.4,-72.3 29.58,-22.05 76.01,-33.78 93.23,-56.16 6.99,-9.09 2.91,-34.7 0.62,-46.22 -5.77,-29.04 -18.12,-56.14 -18.7,-86.17 -0.71,-36.15 -0.71,-46.79 18.43,-65.22 37.66,-36.25 116.64,-11.14 189.74,-38.68 47.47,-17.89 51.95,-49.84 81.76,-86.25 23.94,-29.24 90.1,-64.43 136.21,-133.43zm-858.19 670.67l31.9 0 0 114.46 -31.9 0 0 -114.46zm31.25 211.94l-15.59 0 0 816.63 15.59 0 0 -816.63zm89.33 530.23l32.61 0 0 286.4 -32.61 0 0 -286.4z"/>
  <g>
   <path id="_1" class="fil2" d="M1949.54 942.76c55.16,-82.55 109.78,-176.81 156.9,-214.12 22.32,-17.67 88.66,-37.1 109.17,-8.59 31.4,43.67 62.84,142.38 101.53,231.68 47.64,109.94 102.99,212.92 142.92,269.87 86.48,123.34 284.96,467.86 248.1,625.23 -30.5,130.24 -160.45,151.23 -251.87,74.72 -19.72,-16.5 -32.64,-33.69 -52.24,-19.43 -24.04,17.49 -64.93,50.16 -94.69,49.87 -16.88,-0.16 -30.91,-2.34 -26.53,16.06 7.08,29.77 42.53,63.8 51.75,97.12 9.22,33.32 -3.55,83.65 26.22,96.41 70.64,30.27 101.64,3.56 195.94,69.13 31.34,21.79 69.62,53.04 104.73,95.14 85.68,102.75 176.39,225.41 208.58,327.38 19.85,62.88 -22.58,192.64 11.24,295.49l362.31 1101.94 -2477.89 0 246.44 -745.56c0.4,-204.4 41.23,-425.38 52.08,-627.69 1.25,-23.27 17.73,-27.37 17.68,-37.31l-4.72 -815.02 -83.2 -1.4c-18.66,-0.31 -14.33,-59.72 -24.33,-87.51 -2.35,-6.52 -14.65,-3.58 -18.15,-7.09 -18.43,-18.43 -12.82,-115.44 -11.39,-166.48 10.04,-358.1 26.26,-680.95 55.99,-1038.08 22.69,175.9 52.68,364.18 65.21,539.74 4.96,69.42 22.39,322.04 26.68,384.4 1.14,16.47 -2.55,13.96 12.2,14.06l95.08 0.64 -0 58.15 116.44 0.05 0 72.23 -116.44 0 -0.01 133.99 16.66 0.09 0 78.59 -16.65 0 0 332.15c0,25.49 8.33,54.75 38.04,59.77 15.36,2.59 37.96,3.56 52.65,12.15 17.61,10.29 34.18,37.57 40.41,76 16.72,103.12 -1.79,275.08 4.87,332.79 2.11,18.31 2.25,17.11 16.25,22.47 35.34,13.52 30.09,69.59 30.96,100.83 4.01,143.01 -19.31,382.95 8.14,325.65 45.29,-94.51 101.48,-221.27 170.93,-321.7 34.96,-50.55 201.85,-201.87 213.14,-226.18 20.74,-44.65 -74.4,-52.04 -22.53,-143.98 31.19,-55.29 39.69,-48.21 -4.26,-100.66 -43.95,-52.46 -66.63,-59.54 -66.63,-102.08 0,-42.53 12.76,-109.17 -49.62,-144.62 -62.38,-35.44 -85.78,-64.5 -153.82,-88.61 -51.91,-18.38 -121.19,-13.45 -136.82,-85.78 -2.29,-10.6 -3.74,-21.9 -3.69,-32.89 0.27,-61.65 42.9,-58.56 58.26,-87.62 8.06,-15.24 5.92,-34.29 7.18,-47.19 2.13,-21.72 17.57,-10.68 16.84,-42.79 -0.27,-11.74 -1.61,-26.57 -0.65,-34.79 1.42,-12.05 9.92,-14.88 11.34,-26.94 1.42,-12.06 -3.55,-24.81 -18.43,-55.29 -14.88,-30.48 1.42,-43.23 40.4,-72.3 29.58,-22.05 76.01,-33.78 93.23,-56.16 6.99,-9.09 2.91,-34.7 0.62,-46.22 -5.77,-29.04 -18.12,-56.14 -18.7,-86.17 -0.71,-36.15 -0.71,-46.79 18.43,-65.22 37.66,-36.25 116.64,-11.14 189.74,-38.68 47.47,-17.89 51.95,-49.84 81.76,-86.25 23.94,-29.24 90.1,-64.43 136.21,-133.43zm-858.19 670.67l31.9 0 0 114.46 -31.9 0 0 -114.46zm31.25 211.94l-15.59 0 0 816.63 15.59 0 0 -816.63zm89.33 530.23l32.61 0 0 286.4 -32.61 0 0 -286.4z"/>
  </g>
 </g>
</svg>
